%TF.GenerationSoftware,Altium Limited,Altium Designer,23.10.1 (27)*%
G04 Layer_Physical_Order=1*
G04 Layer_Color=255*
%FSLAX45Y45*%
%MOMM*%
%TF.SameCoordinates,4109F3B7-FE55-4884-923A-908B48AE38E2*%
%TF.FilePolarity,Positive*%
%TF.FileFunction,Copper,L1,Top,Signal*%
%TF.Part,Single*%
G01*
G75*
%TA.AperFunction,SMDPad,CuDef*%
%ADD10R,1.05490X1.00620*%
%ADD11R,0.80000X0.80000*%
%TA.AperFunction,Conductor*%
%ADD12C,0.25400*%
%TA.AperFunction,ComponentPad*%
%ADD13R,1.50000X1.50000*%
%ADD14C,1.50000*%
%ADD15C,1.40000*%
%ADD16R,1.40000X1.40000*%
%TA.AperFunction,ViaPad*%
%ADD17C,6.00000*%
%ADD18C,1.27000*%
G36*
X2225911Y2356618D02*
Y2356851D01*
X2226145D01*
Y2356618D01*
X2226378D01*
Y2356384D01*
X2225911D01*
Y2356618D01*
D02*
G37*
G36*
X2275911Y5581617D02*
Y5581851D01*
X2276145D01*
Y5581617D01*
X2276378D01*
Y5581384D01*
X2275911D01*
Y5581617D01*
D02*
G37*
G36*
X7474600Y6874390D02*
X7482612Y6823802D01*
X7498440Y6775090D01*
X7521693Y6729453D01*
X7551799Y6688016D01*
X7588016Y6651799D01*
X7629453Y6621693D01*
X7675090Y6598440D01*
X7723802Y6582612D01*
X7774390Y6574600D01*
X7775000D01*
Y3218633D01*
Y2475000D01*
X4200000D01*
Y6500000D01*
Y6679931D01*
X4212700Y6687263D01*
X4226247Y6679442D01*
X4251782Y6672600D01*
X4278218D01*
X4303753Y6679442D01*
X4326647Y6692660D01*
X4345340Y6711353D01*
X4358558Y6734247D01*
X4365400Y6759782D01*
Y6786218D01*
X4358558Y6811753D01*
X4345340Y6834647D01*
X4326647Y6853340D01*
X4303753Y6866558D01*
X4278218Y6873400D01*
X4251782D01*
X4226247Y6866558D01*
X4212700Y6858736D01*
X4200000Y6866069D01*
Y6900000D01*
X7474600D01*
Y6874390D01*
D02*
G37*
%LPC*%
G36*
X4532218Y6873400D02*
X4531700D01*
Y6785700D01*
X4619400D01*
Y6786218D01*
X4612558Y6811753D01*
X4599340Y6834647D01*
X4580647Y6853340D01*
X4557753Y6866558D01*
X4532218Y6873400D01*
D02*
G37*
G36*
X4506300D02*
X4505782D01*
X4480247Y6866558D01*
X4457353Y6853340D01*
X4438660Y6834647D01*
X4425442Y6811753D01*
X4418600Y6786218D01*
Y6785700D01*
X4506300D01*
Y6873400D01*
D02*
G37*
G36*
X6056218D02*
X6029782D01*
X6004247Y6866558D01*
X5981353Y6853340D01*
X5962660Y6834647D01*
X5949442Y6811753D01*
X5942600Y6786218D01*
Y6759782D01*
X5949442Y6734247D01*
X5962660Y6711353D01*
X5981353Y6692660D01*
X6004247Y6679442D01*
X6029782Y6672600D01*
X6056218D01*
X6081753Y6679442D01*
X6104647Y6692660D01*
X6123340Y6711353D01*
X6136558Y6734247D01*
X6143400Y6759782D01*
Y6786218D01*
X6136558Y6811753D01*
X6123340Y6834647D01*
X6104647Y6853340D01*
X6081753Y6866558D01*
X6056218Y6873400D01*
D02*
G37*
G36*
X5802218D02*
X5775782D01*
X5750247Y6866558D01*
X5727353Y6853340D01*
X5708660Y6834647D01*
X5695442Y6811753D01*
X5688600Y6786218D01*
Y6759782D01*
X5695442Y6734247D01*
X5708660Y6711353D01*
X5727353Y6692660D01*
X5750247Y6679442D01*
X5775782Y6672600D01*
X5802218D01*
X5827753Y6679442D01*
X5850647Y6692660D01*
X5869340Y6711353D01*
X5882558Y6734247D01*
X5889400Y6759782D01*
Y6786218D01*
X5882558Y6811753D01*
X5869340Y6834647D01*
X5850647Y6853340D01*
X5827753Y6866558D01*
X5802218Y6873400D01*
D02*
G37*
G36*
X5548218D02*
X5521782D01*
X5496247Y6866558D01*
X5473353Y6853340D01*
X5454660Y6834647D01*
X5441442Y6811753D01*
X5434600Y6786218D01*
Y6759782D01*
X5441442Y6734247D01*
X5454660Y6711353D01*
X5473353Y6692660D01*
X5496247Y6679442D01*
X5521782Y6672600D01*
X5548218D01*
X5573753Y6679442D01*
X5596647Y6692660D01*
X5615340Y6711353D01*
X5628558Y6734247D01*
X5635400Y6759782D01*
Y6786218D01*
X5628558Y6811753D01*
X5615340Y6834647D01*
X5596647Y6853340D01*
X5573753Y6866558D01*
X5548218Y6873400D01*
D02*
G37*
G36*
X5294218D02*
X5267782D01*
X5242247Y6866558D01*
X5219353Y6853340D01*
X5200660Y6834647D01*
X5187442Y6811753D01*
X5180600Y6786218D01*
Y6759782D01*
X5187442Y6734247D01*
X5200660Y6711353D01*
X5219353Y6692660D01*
X5242247Y6679442D01*
X5267782Y6672600D01*
X5294218D01*
X5319753Y6679442D01*
X5342647Y6692660D01*
X5361340Y6711353D01*
X5374558Y6734247D01*
X5381400Y6759782D01*
Y6786218D01*
X5374558Y6811753D01*
X5361340Y6834647D01*
X5342647Y6853340D01*
X5319753Y6866558D01*
X5294218Y6873400D01*
D02*
G37*
G36*
X5040218D02*
X5013782D01*
X4988247Y6866558D01*
X4965353Y6853340D01*
X4946660Y6834647D01*
X4933442Y6811753D01*
X4926600Y6786218D01*
Y6759782D01*
X4933442Y6734247D01*
X4946660Y6711353D01*
X4965353Y6692660D01*
X4988247Y6679442D01*
X5013782Y6672600D01*
X5040218D01*
X5065753Y6679442D01*
X5088647Y6692660D01*
X5107340Y6711353D01*
X5120558Y6734247D01*
X5127400Y6759782D01*
Y6786218D01*
X5120558Y6811753D01*
X5107340Y6834647D01*
X5088647Y6853340D01*
X5065753Y6866558D01*
X5040218Y6873400D01*
D02*
G37*
G36*
X4786218D02*
X4759782D01*
X4734247Y6866558D01*
X4711353Y6853340D01*
X4692660Y6834647D01*
X4679442Y6811753D01*
X4672600Y6786218D01*
Y6759782D01*
X4679442Y6734247D01*
X4692660Y6711353D01*
X4711353Y6692660D01*
X4734247Y6679442D01*
X4759782Y6672600D01*
X4786218D01*
X4811753Y6679442D01*
X4834647Y6692660D01*
X4853340Y6711353D01*
X4866558Y6734247D01*
X4873400Y6759782D01*
Y6786218D01*
X4866558Y6811753D01*
X4853340Y6834647D01*
X4834647Y6853340D01*
X4811753Y6866558D01*
X4786218Y6873400D01*
D02*
G37*
G36*
X4619400Y6760300D02*
X4531700D01*
Y6672600D01*
X4532218D01*
X4557753Y6679442D01*
X4580647Y6692660D01*
X4599340Y6711353D01*
X4612558Y6734247D01*
X4619400Y6759782D01*
Y6760300D01*
D02*
G37*
G36*
X4506300D02*
X4418600D01*
Y6759782D01*
X4425442Y6734247D01*
X4438660Y6711353D01*
X4457353Y6692660D01*
X4480247Y6679442D01*
X4505782Y6672600D01*
X4506300D01*
Y6760300D01*
D02*
G37*
G36*
X7326218Y6873400D02*
X7299782D01*
X7274247Y6866558D01*
X7251353Y6853340D01*
X7232660Y6834647D01*
X7219442Y6811753D01*
X7212600Y6786218D01*
Y6759782D01*
X7219442Y6734247D01*
X7232660Y6711353D01*
X7251353Y6692660D01*
X7274154Y6679496D01*
Y6195399D01*
X7254600D01*
Y6018297D01*
X7241900Y6013036D01*
X7097847Y6157090D01*
Y6679496D01*
X7120647Y6692660D01*
X7139340Y6711353D01*
X7152558Y6734247D01*
X7159400Y6759782D01*
Y6786218D01*
X7152558Y6811753D01*
X7139340Y6834647D01*
X7120647Y6853340D01*
X7097753Y6866558D01*
X7072218Y6873400D01*
X7045782D01*
X7020247Y6866558D01*
X6997353Y6853340D01*
X6978660Y6834647D01*
X6965442Y6811753D01*
X6958600Y6786218D01*
Y6759782D01*
X6965442Y6734247D01*
X6978660Y6711353D01*
X6997353Y6692660D01*
X7020154Y6679496D01*
Y6629377D01*
X7008420Y6624517D01*
X6898586Y6734351D01*
X6905400Y6759782D01*
Y6786218D01*
X6898558Y6811753D01*
X6885340Y6834647D01*
X6866647Y6853340D01*
X6843753Y6866558D01*
X6818218Y6873400D01*
X6791782D01*
X6766247Y6866558D01*
X6743353Y6853340D01*
X6724660Y6834647D01*
X6711442Y6811753D01*
X6704600Y6786218D01*
Y6759782D01*
X6711442Y6734247D01*
X6724660Y6711353D01*
X6743353Y6692660D01*
X6766247Y6679442D01*
X6791782Y6672600D01*
X6818218D01*
X6843649Y6679414D01*
X6969354Y6553709D01*
Y6426177D01*
X6957620Y6421317D01*
X6644586Y6734351D01*
X6651400Y6759782D01*
Y6786218D01*
X6644558Y6811753D01*
X6631340Y6834647D01*
X6612647Y6853340D01*
X6589753Y6866558D01*
X6564218Y6873400D01*
X6537782D01*
X6512247Y6866558D01*
X6489353Y6853340D01*
X6470660Y6834647D01*
X6457442Y6811753D01*
X6450600Y6786218D01*
Y6759782D01*
X6457442Y6734247D01*
X6470660Y6711353D01*
X6489353Y6692660D01*
X6512247Y6679442D01*
X6537782Y6672600D01*
X6564218D01*
X6589649Y6679414D01*
X6918554Y6350509D01*
Y6222977D01*
X6906820Y6218117D01*
X6390586Y6734351D01*
X6397400Y6759782D01*
Y6786218D01*
X6390558Y6811753D01*
X6377340Y6834647D01*
X6358647Y6853340D01*
X6335753Y6866558D01*
X6310218Y6873400D01*
X6283782D01*
X6258247Y6866558D01*
X6235353Y6853340D01*
X6216660Y6834647D01*
X6203442Y6811753D01*
X6196600Y6786218D01*
Y6759782D01*
X6203442Y6734247D01*
X6216660Y6711353D01*
X6235353Y6692660D01*
X6258247Y6679442D01*
X6283782Y6672600D01*
X6310218D01*
X6335649Y6679414D01*
X6861153Y6153909D01*
Y5647123D01*
X6864110Y5632257D01*
X6872531Y5619654D01*
X7299100Y5193085D01*
X7298076Y5180179D01*
X7291423Y5176338D01*
X7273661Y5158576D01*
X7261102Y5136822D01*
X7254600Y5112559D01*
Y5087440D01*
X7261102Y5063177D01*
X7273661Y5041422D01*
X7291423Y5023661D01*
X7313177Y5011101D01*
X7337440Y5004600D01*
X7362560D01*
X7386823Y5011101D01*
X7408577Y5023661D01*
X7426339Y5041422D01*
X7438899Y5063177D01*
X7445400Y5087440D01*
Y5112559D01*
X7438899Y5136822D01*
X7426339Y5158576D01*
X7408577Y5176338D01*
X7386823Y5188898D01*
X7377870Y5191297D01*
Y5208100D01*
X7374913Y5222965D01*
X7366492Y5235568D01*
X7358800Y5243260D01*
X7364816Y5255204D01*
X7386823Y5261101D01*
X7408577Y5273661D01*
X7426339Y5291422D01*
X7438899Y5313177D01*
X7445400Y5337440D01*
Y5362559D01*
X7438899Y5386822D01*
X7426339Y5408576D01*
X7408577Y5426338D01*
X7386823Y5438898D01*
X7362560Y5445399D01*
X7337440D01*
X7315434Y5439503D01*
X6996247Y5758690D01*
Y5979346D01*
X7007980Y5984206D01*
X7299100Y5693085D01*
X7298076Y5680179D01*
X7291423Y5676338D01*
X7273661Y5658576D01*
X7261102Y5636822D01*
X7254600Y5612559D01*
Y5587440D01*
X7261102Y5563177D01*
X7273661Y5541422D01*
X7291423Y5523661D01*
X7313177Y5511101D01*
X7337440Y5504600D01*
X7362560D01*
X7386823Y5511101D01*
X7408577Y5523661D01*
X7426339Y5541422D01*
X7438899Y5563177D01*
X7445400Y5587440D01*
Y5612559D01*
X7438899Y5636822D01*
X7426339Y5658576D01*
X7408577Y5676338D01*
X7386823Y5688898D01*
X7377870Y5691297D01*
Y5708100D01*
X7374913Y5722965D01*
X7366492Y5735568D01*
X7358800Y5743260D01*
X7364816Y5755204D01*
X7386823Y5761101D01*
X7408577Y5773661D01*
X7426339Y5791423D01*
X7438899Y5813177D01*
X7445400Y5837440D01*
Y5862559D01*
X7438899Y5886822D01*
X7426339Y5908576D01*
X7408577Y5926338D01*
X7386823Y5938898D01*
X7362560Y5945399D01*
X7337440D01*
X7315434Y5939503D01*
X7263037Y5991900D01*
X7268298Y6004600D01*
X7445400D01*
Y6195399D01*
X7351847D01*
Y6679496D01*
X7374647Y6692660D01*
X7393340Y6711353D01*
X7406558Y6734247D01*
X7413400Y6759782D01*
Y6786218D01*
X7406558Y6811753D01*
X7393340Y6834647D01*
X7374647Y6853340D01*
X7351753Y6866558D01*
X7326218Y6873400D01*
D02*
G37*
G36*
X6711704Y5938900D02*
X6688296D01*
X6665686Y5932842D01*
X6645414Y5921138D01*
X6628862Y5904586D01*
X6619775Y5888846D01*
X6475710D01*
Y5925710D01*
X6174290D01*
Y5888846D01*
X6075000D01*
X6060134Y5885889D01*
X6047531Y5877469D01*
X6008909Y5838847D01*
X4890400D01*
Y5865400D01*
X4759600D01*
Y5734600D01*
X4890400D01*
Y5761154D01*
X6025000D01*
X6039866Y5764111D01*
X6052469Y5772532D01*
X6091091Y5811153D01*
X6174290D01*
Y5774290D01*
X6475710D01*
Y5811153D01*
X6619775D01*
X6628862Y5795414D01*
X6645414Y5778862D01*
X6665686Y5767158D01*
X6688296Y5761100D01*
X6711704D01*
X6734314Y5767158D01*
X6754586Y5778862D01*
X6771138Y5795414D01*
X6782842Y5815686D01*
X6788900Y5838296D01*
Y5861704D01*
X6782842Y5884314D01*
X6771138Y5904586D01*
X6754586Y5921138D01*
X6734314Y5932842D01*
X6711704Y5938900D01*
D02*
G37*
G36*
X4740400Y5865400D02*
X4687700D01*
Y5812700D01*
X4740400D01*
Y5865400D01*
D02*
G37*
G36*
X4662300D02*
X4609600D01*
Y5812700D01*
X4662300D01*
Y5865400D01*
D02*
G37*
G36*
X4740400Y5787300D02*
X4687700D01*
Y5734600D01*
X4740400D01*
Y5787300D01*
D02*
G37*
G36*
X4662300D02*
X4609600D01*
Y5734600D01*
X4662300D01*
Y5787300D01*
D02*
G37*
G36*
X6711704Y5688900D02*
X6688296D01*
X6665686Y5682842D01*
X6645414Y5671138D01*
X6628862Y5654586D01*
X6619775Y5638846D01*
X6475710D01*
Y5675710D01*
X6174290D01*
Y5638846D01*
X6050000D01*
X6035134Y5635889D01*
X6022532Y5627469D01*
X6008909Y5613847D01*
X5015400D01*
Y5640400D01*
X4884600D01*
Y5513846D01*
X4865400D01*
Y5562301D01*
X4799999D01*
Y5575001D01*
X4787299D01*
Y5640400D01*
X4734600D01*
Y5640400D01*
X4687700D01*
Y5575000D01*
X4675000D01*
Y5562300D01*
X4601531D01*
X4597485Y5560517D01*
X4590400Y5566197D01*
Y5640400D01*
X4459600D01*
Y5509600D01*
X4535462D01*
X4597531Y5447531D01*
X4610134Y5439111D01*
X4624999Y5436153D01*
X6008909D01*
X6122531Y5322531D01*
X6135134Y5314111D01*
X6150000Y5311153D01*
X6174290D01*
Y5274290D01*
X6475710D01*
Y5311153D01*
X6619775D01*
X6628862Y5295414D01*
X6645414Y5278862D01*
X6665686Y5267158D01*
X6688296Y5261100D01*
X6711704D01*
X6734314Y5267158D01*
X6754586Y5278862D01*
X6771138Y5295414D01*
X6782842Y5315686D01*
X6788900Y5338296D01*
Y5361704D01*
X6782842Y5384314D01*
X6771138Y5404586D01*
X6754586Y5421138D01*
X6734314Y5432842D01*
X6711704Y5438900D01*
X6688296D01*
X6665686Y5432842D01*
X6645414Y5421138D01*
X6628862Y5404586D01*
X6619775Y5388846D01*
X6475710D01*
Y5425710D01*
X6174290D01*
Y5398607D01*
X6161590Y5393347D01*
X6052468Y5502469D01*
X6039866Y5510889D01*
X6025000Y5513846D01*
X5015400D01*
Y5536154D01*
X6025000D01*
X6039866Y5539111D01*
X6052469Y5547531D01*
X6066091Y5561153D01*
X6174290D01*
Y5524290D01*
X6475710D01*
Y5561153D01*
X6619775D01*
X6628862Y5545414D01*
X6645414Y5528862D01*
X6665686Y5517158D01*
X6688296Y5511100D01*
X6711704D01*
X6734314Y5517158D01*
X6754586Y5528862D01*
X6771138Y5545414D01*
X6782842Y5565686D01*
X6788900Y5588296D01*
Y5611704D01*
X6782842Y5634314D01*
X6771138Y5654586D01*
X6754586Y5671138D01*
X6734314Y5682842D01*
X6711704Y5688900D01*
D02*
G37*
G36*
X4865400Y5640400D02*
X4812699D01*
Y5587701D01*
X4865400D01*
Y5640400D01*
D02*
G37*
G36*
X4662300Y5640400D02*
X4609600D01*
Y5587700D01*
X4662300D01*
Y5640400D01*
D02*
G37*
G36*
X4890400Y5415400D02*
X4837700D01*
Y5362700D01*
X4890400D01*
Y5415400D01*
D02*
G37*
G36*
X4812300D02*
X4759600D01*
Y5362700D01*
X4812300D01*
Y5415400D01*
D02*
G37*
G36*
X4890400Y5337300D02*
X4837700D01*
Y5284600D01*
X4890400D01*
Y5337300D01*
D02*
G37*
G36*
X4740400Y5415400D02*
X4609600D01*
Y5284600D01*
X4685463D01*
X4822531Y5147531D01*
X4835134Y5139111D01*
X4850000Y5136154D01*
X6008909D01*
X6072531Y5072531D01*
X6085134Y5064111D01*
X6100000Y5061153D01*
X6174290D01*
Y5024290D01*
X6475710D01*
Y5175710D01*
X6174290D01*
Y5138846D01*
X6116091D01*
X6052468Y5202469D01*
X6039866Y5210890D01*
X6025000Y5213847D01*
X4866091D01*
X4807070Y5272867D01*
X4811931Y5284600D01*
X4812300D01*
Y5337300D01*
X4751531D01*
X4747485Y5335518D01*
X4740400Y5341197D01*
Y5415400D01*
D02*
G37*
G36*
X6711704Y5188900D02*
X6688296D01*
X6665686Y5182842D01*
X6645414Y5171138D01*
X6628862Y5154586D01*
X6617158Y5134314D01*
X6611100Y5111704D01*
Y5088296D01*
X6617158Y5065686D01*
X6628862Y5045414D01*
X6645414Y5028862D01*
X6665686Y5017158D01*
X6688296Y5011100D01*
X6711704D01*
X6734314Y5017158D01*
X6754586Y5028862D01*
X6771138Y5045414D01*
X6782842Y5065686D01*
X6788900Y5088296D01*
Y5111704D01*
X6782842Y5134314D01*
X6771138Y5154586D01*
X6754586Y5171138D01*
X6734314Y5182842D01*
X6711704Y5188900D01*
D02*
G37*
G36*
X7445400Y3820400D02*
X7254600D01*
Y3629600D01*
X7445400D01*
Y3820400D01*
D02*
G37*
G36*
X6711704Y3563900D02*
X6688296D01*
X6665686Y3557841D01*
X6645414Y3546138D01*
X6628862Y3529586D01*
X6619775Y3513846D01*
X6525710D01*
Y3550710D01*
X6224290D01*
Y3513846D01*
X6100000D01*
X6085134Y3510889D01*
X6072531Y3502468D01*
X6033909Y3463847D01*
X4890400D01*
Y3490400D01*
X4759600D01*
Y3359600D01*
X4890400D01*
Y3386154D01*
X6050000D01*
X6064866Y3389111D01*
X6077469Y3397531D01*
X6116091Y3436153D01*
X6224290D01*
Y3399290D01*
X6525710D01*
Y3436153D01*
X6619775D01*
X6628862Y3420414D01*
X6645414Y3403862D01*
X6665686Y3392158D01*
X6688296Y3386100D01*
X6711704D01*
X6734314Y3392158D01*
X6754586Y3403862D01*
X6771138Y3420414D01*
X6782842Y3440686D01*
X6788900Y3463296D01*
Y3486704D01*
X6782842Y3509314D01*
X6771138Y3529586D01*
X6754586Y3546138D01*
X6734314Y3557841D01*
X6711704Y3563900D01*
D02*
G37*
G36*
X4740400Y3490400D02*
X4687700D01*
Y3437700D01*
X4740400D01*
Y3490400D01*
D02*
G37*
G36*
X4662300D02*
X4609600D01*
Y3437700D01*
X4662300D01*
Y3490400D01*
D02*
G37*
G36*
X7362560Y3570400D02*
X7337440D01*
X7313177Y3563898D01*
X7291423Y3551339D01*
X7273661Y3533577D01*
X7261102Y3511823D01*
X7254600Y3487559D01*
Y3462440D01*
X7261102Y3438177D01*
X7273661Y3416423D01*
X7291423Y3398661D01*
X7313177Y3386101D01*
X7337440Y3379600D01*
X7362560D01*
X7386823Y3386101D01*
X7408577Y3398661D01*
X7426339Y3416423D01*
X7438899Y3438177D01*
X7445400Y3462440D01*
Y3487559D01*
X7438899Y3511823D01*
X7426339Y3533577D01*
X7408577Y3551339D01*
X7386823Y3563898D01*
X7362560Y3570400D01*
D02*
G37*
G36*
X4740400Y3412300D02*
X4687700D01*
Y3359600D01*
X4740400D01*
Y3412300D01*
D02*
G37*
G36*
X4662300D02*
X4609600D01*
Y3359600D01*
X4662300D01*
Y3412300D01*
D02*
G37*
G36*
X6711704Y3313900D02*
X6688296D01*
X6665686Y3307841D01*
X6645414Y3296138D01*
X6628862Y3279586D01*
X6619775Y3263846D01*
X6525710D01*
Y3300710D01*
X6224290D01*
Y3263846D01*
X6075000D01*
X6060134Y3260889D01*
X6047531Y3252468D01*
X6033909Y3238846D01*
X5040400D01*
Y3265400D01*
X4909600D01*
Y3134600D01*
X5040400D01*
Y3161153D01*
X6050000D01*
X6064866Y3164111D01*
X6077469Y3172531D01*
X6091091Y3186153D01*
X6224290D01*
Y3149290D01*
X6525710D01*
Y3186153D01*
X6619775D01*
X6628862Y3170414D01*
X6645414Y3153862D01*
X6665686Y3142158D01*
X6688296Y3136100D01*
X6711704D01*
X6734314Y3142158D01*
X6754586Y3153862D01*
X6771138Y3170414D01*
X6782842Y3190686D01*
X6788900Y3213296D01*
Y3236704D01*
X6782842Y3259314D01*
X6771138Y3279586D01*
X6754586Y3296138D01*
X6734314Y3307841D01*
X6711704Y3313900D01*
D02*
G37*
G36*
X4890400Y3265400D02*
X4837701D01*
Y3212700D01*
X4890400D01*
Y3265400D01*
D02*
G37*
G36*
X4687300D02*
X4634600D01*
Y3212700D01*
X4687300D01*
Y3265400D01*
D02*
G37*
G36*
X4890400Y3187300D02*
X4837701D01*
Y3134600D01*
X4890400D01*
Y3187300D01*
D02*
G37*
G36*
X4812301Y3265400D02*
X4712700D01*
Y3200000D01*
Y3134600D01*
X4812301D01*
Y3200000D01*
Y3265400D01*
D02*
G37*
G36*
X7362560Y3320400D02*
X7337440D01*
X7313177Y3313898D01*
X7291423Y3301339D01*
X7273661Y3283577D01*
X7261102Y3261823D01*
X7254600Y3237559D01*
Y3212440D01*
X7261102Y3188177D01*
X7273661Y3166423D01*
X7291423Y3148661D01*
X7313177Y3136101D01*
X7337440Y3129600D01*
X7362560D01*
X7386823Y3136101D01*
X7408577Y3148661D01*
X7426339Y3166423D01*
X7438899Y3188177D01*
X7445400Y3212440D01*
Y3237559D01*
X7438899Y3261823D01*
X7426339Y3283577D01*
X7408577Y3301339D01*
X7386823Y3313898D01*
X7362560Y3320400D01*
D02*
G37*
G36*
X4615400Y3265400D02*
X4484600D01*
Y3134600D01*
X4560463D01*
X4641963Y3053100D01*
X4636702Y3040400D01*
X4609600D01*
Y2909600D01*
X4685463D01*
X4747531Y2847532D01*
X4760134Y2839111D01*
X4775000Y2836154D01*
X6008909D01*
X6147532Y2697531D01*
X6160134Y2689110D01*
X6175000Y2686153D01*
X6224290D01*
Y2649290D01*
X6525710D01*
Y2686153D01*
X6619775D01*
X6628862Y2670414D01*
X6645414Y2653862D01*
X6665686Y2642158D01*
X6688296Y2636100D01*
X6711704D01*
X6734314Y2642158D01*
X6754586Y2653862D01*
X6771138Y2670414D01*
X6782842Y2690686D01*
X6788900Y2713296D01*
Y2736704D01*
X6782842Y2759314D01*
X6771138Y2779586D01*
X6754586Y2796138D01*
X6734314Y2807841D01*
X6711704Y2813900D01*
X6688296D01*
X6665686Y2807841D01*
X6645414Y2796138D01*
X6628862Y2779586D01*
X6619775Y2763846D01*
X6525710D01*
Y2800710D01*
X6224290D01*
Y2763846D01*
X6191091D01*
X6052468Y2902469D01*
X6039866Y2910890D01*
X6025000Y2913847D01*
X4890400D01*
Y2962300D01*
X4825000D01*
Y2987700D01*
X4890400D01*
Y3035003D01*
X6035059D01*
X6122531Y2947531D01*
X6135134Y2939110D01*
X6150000Y2936153D01*
X6224290D01*
Y2899290D01*
X6525710D01*
Y2936153D01*
X6619775D01*
X6628862Y2920414D01*
X6645414Y2903862D01*
X6665686Y2892158D01*
X6688296Y2886100D01*
X6711704D01*
X6734314Y2892158D01*
X6754586Y2903862D01*
X6771138Y2920414D01*
X6782842Y2940686D01*
X6788900Y2963296D01*
Y2986704D01*
X6782842Y3009314D01*
X6771138Y3029586D01*
X6754586Y3046138D01*
X6734314Y3057841D01*
X6711704Y3063900D01*
X6688296D01*
X6665686Y3057841D01*
X6645414Y3046138D01*
X6628862Y3029586D01*
X6619775Y3013846D01*
X6525710D01*
Y3050710D01*
X6224290D01*
Y3013846D01*
X6166091D01*
X6078619Y3101318D01*
X6066016Y3109739D01*
X6051150Y3112696D01*
X4692241D01*
X4682070Y3122867D01*
X4686931Y3134600D01*
X4687300D01*
Y3187300D01*
X4626531D01*
X4622485Y3185518D01*
X4615400Y3191197D01*
Y3265400D01*
D02*
G37*
G36*
X7362560Y3070399D02*
X7337440D01*
X7313177Y3063898D01*
X7291423Y3051339D01*
X7273661Y3033577D01*
X7261102Y3011823D01*
X7254600Y2987559D01*
Y2962440D01*
X7261102Y2938177D01*
X7273661Y2916423D01*
X7291423Y2898661D01*
X7313177Y2886101D01*
X7337440Y2879600D01*
X7362560D01*
X7386823Y2886101D01*
X7408577Y2898661D01*
X7426339Y2916423D01*
X7438899Y2938177D01*
X7445400Y2962440D01*
Y2987559D01*
X7438899Y3011823D01*
X7426339Y3033577D01*
X7408577Y3051339D01*
X7386823Y3063898D01*
X7362560Y3070399D01*
D02*
G37*
G36*
Y2820399D02*
X7337440D01*
X7313177Y2813898D01*
X7291423Y2801339D01*
X7273661Y2783577D01*
X7261102Y2761823D01*
X7254600Y2737559D01*
Y2712440D01*
X7261102Y2688177D01*
X7273661Y2666423D01*
X7291423Y2648661D01*
X7313177Y2636101D01*
X7337440Y2629600D01*
X7362560D01*
X7386823Y2636101D01*
X7408577Y2648661D01*
X7426339Y2666423D01*
X7438899Y2688177D01*
X7445400Y2712440D01*
Y2737559D01*
X7438899Y2761823D01*
X7426339Y2783577D01*
X7408577Y2801339D01*
X7386823Y2813898D01*
X7362560Y2820399D01*
D02*
G37*
%LPD*%
D10*
X6302435Y3475000D02*
D03*
X6447565D02*
D03*
X6302435Y3225000D02*
D03*
X6447565D02*
D03*
X6302435Y2975000D02*
D03*
X6447565D02*
D03*
X6302435Y2725000D02*
D03*
X6447565D02*
D03*
X6252435Y5100000D02*
D03*
X6397565D02*
D03*
X6252435Y5350000D02*
D03*
X6397565D02*
D03*
X6252435Y5600000D02*
D03*
X6397565D02*
D03*
X6252435Y5850000D02*
D03*
X6397565D02*
D03*
D11*
X4825000Y3200000D02*
D03*
X4975000D02*
D03*
X4800000Y5575000D02*
D03*
X4950000D02*
D03*
X4675000Y5575000D02*
D03*
X4525000D02*
D03*
X4825000Y2975000D02*
D03*
X4675000D02*
D03*
X4700000Y3200000D02*
D03*
X4550000D02*
D03*
X4675000Y3425000D02*
D03*
X4825000D02*
D03*
X4675000Y5800000D02*
D03*
X4825000D02*
D03*
X4825000Y5350000D02*
D03*
X4675000D02*
D03*
D12*
X6175000Y2725000D02*
X6300000D01*
X4775000Y2875000D02*
X6025000D01*
X6175000Y2725000D01*
X6150000Y2975000D02*
X6300000D01*
X4676150Y3073850D02*
X6051150D01*
X6150000Y2975000D01*
X6075000Y3225000D02*
X6300000D01*
X4975000Y3200000D02*
X6050000D01*
X6075000Y3225000D01*
X6100000Y3475000D02*
X6300000D01*
X4825000Y3425000D02*
X6050000D01*
X6100000Y3475000D01*
Y5100000D02*
X6250000D01*
X6025000Y5175000D02*
X6100000Y5100000D01*
X4850000Y5175000D02*
X6025000D01*
X4624999Y5475000D02*
X6025000D01*
X4525000Y5575000D02*
X4552300Y5547700D01*
Y5547699D02*
Y5547700D01*
Y5547699D02*
X4624999Y5475000D01*
X6150000Y5350000D02*
X6250000D01*
X6025000Y5475000D02*
X6150000Y5350000D01*
X6050000Y5600000D02*
X6250000D01*
X4950000Y5575000D02*
X6025000D01*
X6050000Y5600000D01*
X6075000Y5850000D02*
X6250000D01*
X4825000Y5800000D02*
X6025000D01*
X6075000Y5850000D01*
X6397565Y5350000D02*
X6700000D01*
X6397565Y5600000D02*
X6700000D01*
X6397565Y5850000D02*
X6700000D01*
X6447565Y2725000D02*
X6700000D01*
X6447565Y2975000D02*
X6700000D01*
X6447565Y3225000D02*
X6700000D01*
X6447565Y3475000D02*
X6700000D01*
X4675000Y5350000D02*
X4850000Y5175000D01*
X4675000Y2975000D02*
X4775000Y2875000D01*
X4550000Y3200000D02*
X4676150Y3073850D01*
X4675000Y3425000D02*
X4700000Y3400000D01*
X6700000Y3475000D02*
X6700000Y3475000D01*
X4975000Y3200000D02*
X5000000Y3225000D01*
X7325000Y5100000D02*
X7325000Y5100000D01*
X6823000Y6755000D02*
X7008200Y6569800D01*
X6957400Y5742599D02*
Y6366600D01*
X6297000Y6773000D02*
X6900000Y6170000D01*
Y5647123D02*
Y6170000D01*
X6805000Y6755000D02*
X6823000D01*
X6551000Y6773000D02*
X6957400Y6366600D01*
X7008200Y6038923D02*
Y6569800D01*
Y6038923D02*
X7339023Y5708100D01*
X6900000Y5647123D02*
X7339023Y5208100D01*
X6957400Y5742599D02*
X7350000Y5349999D01*
X7339023Y5110976D02*
X7350000Y5099999D01*
X7339023Y5110976D02*
Y5208100D01*
Y5610976D02*
X7350000Y5599999D01*
X7339023Y5610976D02*
Y5708100D01*
X7059000Y6140999D02*
Y6773000D01*
Y6140999D02*
X7350000Y5850000D01*
X7350000D01*
X7350000Y5850000D02*
X7350000Y5850000D01*
X7313000Y6137000D02*
Y6773000D01*
Y6137000D02*
X7350000Y6100000D01*
X4675000Y5375000D02*
X4675001D01*
X4675000Y5800000D02*
X4675000Y5800000D01*
X4675000Y5775000D02*
X4675000Y5775000D01*
D13*
X2487000Y6773000D02*
D03*
D14*
Y7027000D02*
D03*
X2741000Y6773000D02*
D03*
Y7027000D02*
D03*
X2995000Y6773000D02*
D03*
Y7027000D02*
D03*
X3249000Y6773000D02*
D03*
Y7027000D02*
D03*
X3503000Y6773000D02*
D03*
Y7027000D02*
D03*
X3757000Y6773000D02*
D03*
Y7027000D02*
D03*
X4011000Y6773000D02*
D03*
Y7027000D02*
D03*
X4265000Y6773000D02*
D03*
Y7027000D02*
D03*
X4519000Y6773000D02*
D03*
Y7027000D02*
D03*
X4773000Y6773000D02*
D03*
Y7027000D02*
D03*
X5027000Y6773000D02*
D03*
Y7027000D02*
D03*
X5281000Y6773000D02*
D03*
Y7027000D02*
D03*
X5535000Y6773000D02*
D03*
Y7027000D02*
D03*
X5789000Y6773000D02*
D03*
Y7027000D02*
D03*
X6043000Y6773000D02*
D03*
Y7027000D02*
D03*
X6297000Y6773000D02*
D03*
Y7027000D02*
D03*
X7313000D02*
D03*
Y6773000D02*
D03*
X7059000Y7027000D02*
D03*
Y6773000D02*
D03*
X6805000Y7027000D02*
D03*
Y6773000D02*
D03*
X6551000Y7027000D02*
D03*
Y6773000D02*
D03*
D15*
X7350000Y2725000D02*
D03*
Y2975000D02*
D03*
Y3225000D02*
D03*
Y3475000D02*
D03*
Y5099999D02*
D03*
Y5349999D02*
D03*
Y5599999D02*
D03*
Y5849999D02*
D03*
D16*
Y3725000D02*
D03*
Y6099999D02*
D03*
D17*
X7800000Y2000000D02*
D03*
Y6900000D02*
D03*
X2000000Y2000000D02*
D03*
Y6900000D02*
D03*
D18*
X6700000Y2725000D02*
D03*
Y2975000D02*
D03*
Y3225000D02*
D03*
Y3475000D02*
D03*
Y5100000D02*
D03*
Y5350000D02*
D03*
Y5600000D02*
D03*
Y5850000D02*
D03*
%TF.MD5,eb77e766654b0ad9bb3ed12a24c2cf6a*%
M02*
