%TF.GenerationSoftware,Altium Limited,Altium Designer,23.6.0 (18)*%
G04 Layer_Color=8388736*
%FSLAX26Y26*%
%MOIN*%
%TF.SameCoordinates,30E3F9D9-9B49-4D85-A541-89FB00A1F4BC*%
%TF.FilePolarity,Negative*%
%TF.FileFunction,Soldermask,Top*%
%TF.Part,Single*%
G01*
G75*
%TA.AperFunction,SMDPad,CuDef*%
%ADD11R,0.059055X0.039370*%
%ADD13R,0.009842X0.011811*%
%ADD14R,0.031496X0.031496*%
%TA.AperFunction,ComponentPad*%
%ADD17C,0.061811*%
%ADD18R,0.061811X0.061811*%
%ADD19C,0.055118*%
%ADD20R,0.055118X0.055118*%
%TA.AperFunction,SMDPad,CuDef*%
%ADD29R,0.043433X0.039496*%
%TA.AperFunction,ComponentPad*%
%ADD30R,0.067055X0.067055*%
%ADD31C,0.067055*%
%TA.AperFunction,ViaPad*%
%ADD32C,0.244220*%
%ADD33C,0.058000*%
D11*
X1456693Y1108268D02*
D03*
Y1234252D02*
D03*
D13*
X2559055Y2303150D02*
D03*
X2535433D02*
D03*
X2559055Y2204724D02*
D03*
X2535433D02*
D03*
X2559055Y2106299D02*
D03*
X2535433D02*
D03*
X2559055Y2007874D02*
D03*
X2535433D02*
D03*
X2559055Y1072835D02*
D03*
X2535433D02*
D03*
X2559055Y1171260D02*
D03*
X2535433D02*
D03*
X2559055Y1269685D02*
D03*
X2535433D02*
D03*
X2559055Y1368110D02*
D03*
X2535433D02*
D03*
D14*
X1899606Y1259842D02*
D03*
X1958661D02*
D03*
X1889764Y2194882D02*
D03*
X1948819D02*
D03*
X1840551Y2194882D02*
D03*
X1781496D02*
D03*
X1899606Y1171260D02*
D03*
X1840551D02*
D03*
X1850394Y1259842D02*
D03*
X1791339D02*
D03*
X1840551Y1348425D02*
D03*
X1899606D02*
D03*
X1840551Y2283465D02*
D03*
X1899606D02*
D03*
X1899606Y2106299D02*
D03*
X1840551D02*
D03*
D17*
X1141732Y935827D02*
D03*
D18*
Y835827D02*
D03*
D19*
X2893701Y1072834D02*
D03*
Y1171260D02*
D03*
Y1269685D02*
D03*
Y1368110D02*
D03*
Y2007874D02*
D03*
Y2106299D02*
D03*
Y2204724D02*
D03*
Y2303149D02*
D03*
D20*
Y1466535D02*
D03*
Y2401575D02*
D03*
D29*
X1387795Y858268D02*
D03*
Y933071D02*
D03*
X1309055Y895669D02*
D03*
D30*
X979134Y2666535D02*
D03*
D31*
Y2766535D02*
D03*
X1079134Y2666535D02*
D03*
Y2766535D02*
D03*
X1179134Y2666535D02*
D03*
Y2766535D02*
D03*
X1279134Y2666535D02*
D03*
Y2766535D02*
D03*
X1379134Y2666535D02*
D03*
Y2766535D02*
D03*
X1479134Y2666535D02*
D03*
Y2766535D02*
D03*
X1579134Y2666535D02*
D03*
Y2766535D02*
D03*
X1679134Y2666535D02*
D03*
Y2766535D02*
D03*
X1779134Y2666535D02*
D03*
Y2766535D02*
D03*
X1879134Y2666535D02*
D03*
Y2766535D02*
D03*
X1979134Y2666535D02*
D03*
Y2766535D02*
D03*
X2079134Y2666535D02*
D03*
Y2766535D02*
D03*
X2179134Y2666535D02*
D03*
Y2766535D02*
D03*
X2279134Y2666535D02*
D03*
Y2766535D02*
D03*
X2379134Y2666535D02*
D03*
Y2766535D02*
D03*
X2479134Y2666535D02*
D03*
Y2766535D02*
D03*
X2879134D02*
D03*
Y2666535D02*
D03*
X2779134Y2766535D02*
D03*
Y2666535D02*
D03*
X2679134Y2766535D02*
D03*
Y2666535D02*
D03*
X2579134Y2766535D02*
D03*
Y2666535D02*
D03*
D32*
X3070866Y787402D02*
D03*
Y2716535D02*
D03*
X787402Y787402D02*
D03*
Y2716535D02*
D03*
D33*
X2637795Y1072835D02*
D03*
Y1171260D02*
D03*
Y1269685D02*
D03*
Y1368110D02*
D03*
Y2007874D02*
D03*
Y2106299D02*
D03*
Y2204724D02*
D03*
Y2303150D02*
D03*
%TF.MD5,c6478755d30cbe6de41ed79b063da350*%
M02*
