%TF.GenerationSoftware,Altium Limited,Altium Designer,23.10.1 (27)*%
G04 Layer_Color=16711935*
%FSLAX45Y45*%
%MOMM*%
%TF.SameCoordinates,4109F3B7-FE55-4884-923A-908B48AE38E2*%
%TF.FilePolarity,Negative*%
%TF.FileFunction,Soldermask,Bot*%
%TF.Part,Single*%
G01*
G75*
%TA.AperFunction,ComponentPad*%
%ADD15C,1.40000*%
%ADD16R,1.40000X1.40000*%
%ADD25R,1.70320X1.70320*%
%ADD26C,1.70320*%
%TA.AperFunction,ViaPad*%
%ADD27C,6.20320*%
%ADD28C,1.47320*%
D15*
X7350000Y2725000D02*
D03*
Y2975000D02*
D03*
Y3225000D02*
D03*
Y3475000D02*
D03*
Y5099999D02*
D03*
Y5349999D02*
D03*
Y5599999D02*
D03*
Y5849999D02*
D03*
D16*
Y3725000D02*
D03*
Y6099999D02*
D03*
D25*
X2487000Y6773000D02*
D03*
D26*
Y7027000D02*
D03*
X2741000Y6773000D02*
D03*
Y7027000D02*
D03*
X2995000Y6773000D02*
D03*
Y7027000D02*
D03*
X3249000Y6773000D02*
D03*
Y7027000D02*
D03*
X3503000Y6773000D02*
D03*
Y7027000D02*
D03*
X3757000Y6773000D02*
D03*
Y7027000D02*
D03*
X4011000Y6773000D02*
D03*
Y7027000D02*
D03*
X4265000Y6773000D02*
D03*
Y7027000D02*
D03*
X4519000Y6773000D02*
D03*
Y7027000D02*
D03*
X4773000Y6773000D02*
D03*
Y7027000D02*
D03*
X5027000Y6773000D02*
D03*
Y7027000D02*
D03*
X5281000Y6773000D02*
D03*
Y7027000D02*
D03*
X5535000Y6773000D02*
D03*
Y7027000D02*
D03*
X5789000Y6773000D02*
D03*
Y7027000D02*
D03*
X6043000Y6773000D02*
D03*
Y7027000D02*
D03*
X6297000Y6773000D02*
D03*
Y7027000D02*
D03*
X7313000D02*
D03*
Y6773000D02*
D03*
X7059000Y7027000D02*
D03*
Y6773000D02*
D03*
X6805000Y7027000D02*
D03*
Y6773000D02*
D03*
X6551000Y7027000D02*
D03*
Y6773000D02*
D03*
D27*
X7800000Y2000000D02*
D03*
Y6900000D02*
D03*
X2000000Y2000000D02*
D03*
Y6900000D02*
D03*
D28*
X6700000Y2725000D02*
D03*
Y2975000D02*
D03*
Y3225000D02*
D03*
Y3475000D02*
D03*
Y5100000D02*
D03*
Y5350000D02*
D03*
Y5600000D02*
D03*
Y5850000D02*
D03*
%TF.MD5,82bc5e4472584031067525bb71b6323c*%
M02*
