%TF.GenerationSoftware,Altium Limited,Altium Designer,23.6.0 (18)*%
G04 Layer_Color=8421504*
%FSLAX26Y26*%
%MOIN*%
%TF.SameCoordinates,30E3F9D9-9B49-4D85-A541-89FB00A1F4BC*%
%TF.FilePolarity,Positive*%
%TF.FileFunction,Paste,Top*%
%TF.Part,Single*%
G01*
G75*
%TA.AperFunction,SMDPad,CuDef*%
%ADD11R,0.059055X0.039370*%
%ADD12R,0.035433X0.031496*%
%ADD13R,0.009842X0.011811*%
%ADD14R,0.031496X0.031496*%
D11*
X1456693Y1108268D02*
D03*
Y1234252D02*
D03*
D12*
X1387795Y858268D02*
D03*
Y933071D02*
D03*
X1309055Y895669D02*
D03*
D13*
X2559055Y2303150D02*
D03*
X2535433D02*
D03*
X2559055Y2204724D02*
D03*
X2535433D02*
D03*
X2559055Y2106299D02*
D03*
X2535433D02*
D03*
X2559055Y2007874D02*
D03*
X2535433D02*
D03*
X2559055Y1072835D02*
D03*
X2535433D02*
D03*
X2559055Y1171260D02*
D03*
X2535433D02*
D03*
X2559055Y1269685D02*
D03*
X2535433D02*
D03*
X2559055Y1368110D02*
D03*
X2535433D02*
D03*
D14*
X1899606Y1259842D02*
D03*
X1958661D02*
D03*
X1889764Y2194882D02*
D03*
X1948819D02*
D03*
X1840551Y2194882D02*
D03*
X1781496D02*
D03*
X1899606Y1171260D02*
D03*
X1840551D02*
D03*
X1850394Y1259842D02*
D03*
X1791339D02*
D03*
X1840551Y1348425D02*
D03*
X1899606D02*
D03*
X1840551Y2283465D02*
D03*
X1899606D02*
D03*
X1899606Y2106299D02*
D03*
X1840551D02*
D03*
%TF.MD5,bb10b255fb739435c61919f01e11619e*%
M02*
