%TF.GenerationSoftware,Altium Limited,Altium Designer,23.10.1 (27)*%
G04 Layer_Color=0*
%FSLAX45Y45*%
%MOMM*%
%TF.SameCoordinates,4109F3B7-FE55-4884-923A-908B48AE38E2*%
%TF.FilePolarity,Positive*%
%TF.FileFunction,Plated,1,2,PTH,Drill*%
%TF.Part,Single*%
G01*
G75*
%TA.AperFunction,ComponentDrill*%
%ADD30C,0.90000*%
%ADD31C,0.90000*%
%TA.AperFunction,OtherDrill,Free Pad (78mm,20mm)*%
%ADD32C,2.75000*%
%TA.AperFunction,OtherDrill,Free Pad (78mm,69mm)*%
%ADD33C,2.75000*%
%TA.AperFunction,OtherDrill,Free Pad (20mm,20mm)*%
%ADD34C,2.75000*%
%TA.AperFunction,OtherDrill,Free Pad (20mm,69mm)*%
%ADD35C,2.75000*%
%TA.AperFunction,ViaDrill,NotFilled*%
%ADD36C,0.71120*%
D30*
X2487000Y6773000D02*
D03*
Y7027000D02*
D03*
X2741000Y6773000D02*
D03*
Y7027000D02*
D03*
X2995000Y6773000D02*
D03*
Y7027000D02*
D03*
X3249000Y6773000D02*
D03*
Y7027000D02*
D03*
X3503000Y6773000D02*
D03*
Y7027000D02*
D03*
X3757000Y6773000D02*
D03*
Y7027000D02*
D03*
X4011000Y6773000D02*
D03*
Y7027000D02*
D03*
X4265000Y6773000D02*
D03*
Y7027000D02*
D03*
X4519000Y6773000D02*
D03*
Y7027000D02*
D03*
X4773000Y6773000D02*
D03*
Y7027000D02*
D03*
X5027000Y6773000D02*
D03*
Y7027000D02*
D03*
X5281000Y6773000D02*
D03*
Y7027000D02*
D03*
X5535000Y6773000D02*
D03*
Y7027000D02*
D03*
X5789000Y6773000D02*
D03*
Y7027000D02*
D03*
X6043000Y6773000D02*
D03*
Y7027000D02*
D03*
X6297000Y6773000D02*
D03*
Y7027000D02*
D03*
X7313000D02*
D03*
Y6773000D02*
D03*
X7059000Y7027000D02*
D03*
Y6773000D02*
D03*
X6805000Y7027000D02*
D03*
Y6773000D02*
D03*
X6551000Y7027000D02*
D03*
Y6773000D02*
D03*
D31*
X7350000Y2725000D02*
D03*
Y2975000D02*
D03*
Y3225000D02*
D03*
Y3475000D02*
D03*
Y3725000D02*
D03*
Y5099999D02*
D03*
Y5349999D02*
D03*
Y5599999D02*
D03*
Y5849999D02*
D03*
Y6099999D02*
D03*
D32*
X7800000Y2000000D02*
D03*
D33*
Y6900000D02*
D03*
D34*
X2000000Y2000000D02*
D03*
D35*
Y6900000D02*
D03*
D36*
X6700000Y2725000D02*
D03*
Y2975000D02*
D03*
Y3225000D02*
D03*
Y3475000D02*
D03*
Y5100000D02*
D03*
Y5350000D02*
D03*
Y5600000D02*
D03*
Y5850000D02*
D03*
%TF.MD5,f2cf8e0e2a58363c22f8a4b8b473afdd*%
M02*
